# xmcd
#
# Track frame offsets:
# 150
# 21762
# 52050
#
# Disc length: 1414 seconds
#
#
# Revision: 0
# Processed by: cddbd v1.5.2PL0 Copyright (c) Steve Scherf et al.
# Submitted via: FreeRIP 2.40 
#
DISCID=20058403
DTITLE=Tamia - Stranger In My House
DYEAR=2001
DGENRE=R&B
TTITLE0=Stranger In My House
TTITLE1=Un'h... To You
TTITLE2=Data
EXTD=
EXTT0=
EXTT1=
EXTT2=
PLAYORDER=
